<mxfile host="Electron" modified="2023-05-09T22:09:13.927Z" agent="Mozilla/5.0 (Windows NT 10.0; Win64; x64) AppleWebKit/537.36 (KHTML, like Gecko) draw.io/21.2.1 Chrome/112.0.5615.87 Electron/24.1.2 Safari/537.36" etag="zwFWFEzaKqX2vi5u3crI" version="21.2.1" type="device">
  <diagram name="Stránka-1" id="qd5s0iNdWMvR4r2C5c5G">
    <mxGraphModel dx="592" dy="346" grid="1" gridSize="10" guides="1" tooltips="1" connect="1" arrows="1" fold="1" page="1" pageScale="1" pageWidth="827" pageHeight="1169" math="0" shadow="0">
      <root>
        <mxCell id="0" />
        <mxCell id="1" parent="0" />
        <mxCell id="kif9EiL0x0l5iAz5XZqo-1" value="&lt;div style=&quot;line-height: 20%;&quot;&gt;&lt;h1 style=&quot;text-align: left; border-color: var(--border-color); line-height: 20%;&quot;&gt;&lt;font style=&quot;font-size: 11px;&quot;&gt;4.2&lt;span style=&quot;white-space: pre;&quot;&gt;	&lt;/span&gt;Newton&lt;/font&gt;&lt;/h1&gt;&lt;/div&gt;&lt;div style=&quot;text-align: left; font-size: 10px; line-height: 180%;&quot;&gt;&lt;b&gt;4.2.1 Unit&lt;/b&gt;&lt;/div&gt;&lt;div style=&quot;text-align: justify; line-height: 120%;&quot;&gt;Tento text je pouze ukáz- kový. Není zde uvedena žádná důležitá informace.&lt;/div&gt;&lt;div style=&quot;text-align: left; line-height: 200%;&quot;&gt;&lt;span style=&quot;background-color: initial; font-size: 10px;&quot;&gt;&lt;b&gt;4.2.2 Isaac Newton&lt;/b&gt;&lt;/span&gt;&lt;/div&gt;&lt;div style=&quot;text-align: justify;&quot;&gt;&lt;span style=&quot;background-color: initial;&quot;&gt;Tento text je pouze ukáz- kový. Není zde uvedena žádná důležitá informace.&lt;/span&gt;&lt;/div&gt;" style="rounded=0;whiteSpace=wrap;html=1;strokeWidth=0.1;strokeColor=#B3B3B3;fontSize=9;fontFamily=Times New Roman;spacingLeft=2;spacingRight=2;spacingBottom=2;spacingTop=2;" parent="1" vertex="1">
          <mxGeometry x="200" y="170" width="100" height="140" as="geometry" />
        </mxCell>
        <mxCell id="kif9EiL0x0l5iAz5XZqo-6" value="" style="shape=flexArrow;endArrow=classic;html=1;rounded=0;width=10;endSize=7.252380952380952;endWidth=17.11111111111111;" parent="1" edge="1">
          <mxGeometry width="50" height="50" relative="1" as="geometry">
            <mxPoint x="310" y="239.76" as="sourcePoint" />
            <mxPoint x="370" y="239.76" as="targetPoint" />
          </mxGeometry>
        </mxCell>
        <mxCell id="eJRfP3I-6VqOlbCwXUQ2-3" value="&lt;div style=&quot;line-height: 20%;&quot;&gt;&lt;h1 style=&quot;text-align: left; border-color: var(--border-color); line-height: 20%;&quot;&gt;&lt;font style=&quot;font-size: 11px;&quot;&gt;4.2&lt;span style=&quot;white-space: pre;&quot;&gt;	&lt;/span&gt;Newton&lt;/font&gt;&lt;/h1&gt;&lt;/div&gt;&lt;div style=&quot;text-align: left; font-size: 10px; line-height: 180%;&quot;&gt;&lt;b&gt;4.2.1 Unit&lt;/b&gt;&lt;/div&gt;&lt;div style=&quot;text-align: justify; line-height: 120%;&quot;&gt;Tento text je pouze ukáz- kový. Není zde uvedena žádná důležitá informace.&lt;/div&gt;&lt;div style=&quot;text-align: left; line-height: 200%;&quot;&gt;&lt;span style=&quot;background-color: initial; font-size: 10px;&quot;&gt;&lt;b&gt;4.2.2 Isaac Newton&lt;/b&gt;&lt;/span&gt;&lt;/div&gt;&lt;div style=&quot;text-align: justify;&quot;&gt;&lt;span style=&quot;background-color: initial;&quot;&gt;Tento text je pouze ukáz- kový. Není zde uvedena žádná důležitá informace.&lt;/span&gt;&lt;/div&gt;" style="rounded=0;whiteSpace=wrap;html=1;strokeWidth=0.1;strokeColor=#B3B3B3;fontSize=9;fontFamily=Times New Roman;spacingLeft=2;spacingRight=2;spacingBottom=2;spacingTop=2;" vertex="1" parent="1">
          <mxGeometry x="380" y="170" width="100" height="140" as="geometry" />
        </mxCell>
        <mxCell id="eJRfP3I-6VqOlbCwXUQ2-4" value="&lt;div style=&quot;line-height: 20%;&quot;&gt;&lt;h1 style=&quot;text-align: left; border-color: var(--border-color); line-height: 0%;&quot;&gt;&lt;font style=&quot;font-size: 11px;&quot;&gt;4.2&lt;span style=&quot;&quot;&gt;	&lt;/span&gt;Newton&lt;/font&gt;&lt;/h1&gt;&lt;/div&gt;&lt;div style=&quot;text-align: left; line-height: 180%;&quot;&gt;&lt;font style=&quot;font-size: 9px;&quot;&gt;Toto je ukázkový text.&lt;/font&gt;&lt;b style=&quot;font-size: 10px;&quot;&gt;&lt;br&gt;&lt;/b&gt;&lt;/div&gt;&lt;div style=&quot;text-align: left; font-size: 10px; line-height: 180%;&quot;&gt;&lt;b&gt;4.2.1 Unit&lt;/b&gt;&lt;/div&gt;&lt;div style=&quot;text-align: justify; line-height: 120%;&quot;&gt;Tento text je pouze ukáz- kový. Není zde uvedena žádná důležitá informace.&lt;/div&gt;&lt;div style=&quot;text-align: left; line-height: 200%;&quot;&gt;&lt;span style=&quot;background-color: initial; font-size: 10px;&quot;&gt;&lt;b&gt;4.2.2 Isaac Newton&lt;/b&gt;&lt;/span&gt;&lt;/div&gt;&lt;div style=&quot;text-align: justify;&quot;&gt;&lt;span style=&quot;background-color: initial;&quot;&gt;Tento text je pouze ukáz- kový. Není zde uvedena žádná důležitá informace.&lt;/span&gt;&lt;/div&gt;" style="rounded=0;whiteSpace=wrap;html=1;strokeWidth=0.1;strokeColor=#B3B3B3;fontSize=9;fontFamily=Times New Roman;spacingLeft=2;spacingRight=2;spacingBottom=8;spacingTop=2;" vertex="1" parent="1">
          <mxGeometry x="560" y="170" width="100" height="140" as="geometry" />
        </mxCell>
        <mxCell id="eJRfP3I-6VqOlbCwXUQ2-5" value="" style="endArrow=none;html=1;rounded=0;strokeWidth=10;strokeColor=#CC0000;opacity=50;" edge="1" parent="1">
          <mxGeometry width="50" height="50" relative="1" as="geometry">
            <mxPoint x="383" y="202" as="sourcePoint" />
            <mxPoint x="477" y="202" as="targetPoint" />
          </mxGeometry>
        </mxCell>
        <mxCell id="eJRfP3I-6VqOlbCwXUQ2-7" value="" style="shape=flexArrow;endArrow=classic;html=1;rounded=0;width=10;endSize=7.252380952380952;endWidth=17.11111111111111;" edge="1" parent="1">
          <mxGeometry width="50" height="50" relative="1" as="geometry">
            <mxPoint x="490" y="239.76" as="sourcePoint" />
            <mxPoint x="550" y="239.76" as="targetPoint" />
          </mxGeometry>
        </mxCell>
      </root>
    </mxGraphModel>
  </diagram>
</mxfile>
